<?xml version="1.0" encoding="UTF-8"?>
<!DOCTYPE svg PUBLIC "-//W3C//DTD SVG 1.1//EN" "http://www.w3.org/Graphics/SVG/1.1/DTD/svg11.dtd">
<svg xmlns="http://www.w3.org/2000/svg" version="1.1" width="96px" height="96px" style="shape-rendering:geometricPrecision; text-rendering:geometricPrecision; image-rendering:optimizeQuality; fill-rule:evenodd; clip-rule:evenodd" xmlns:xlink="http://www.w3.org/1999/xlink">
<g><path style="opacity:0.435" fill="#c94747" d="M 40.5,1.5 C 68.748,0.269855 86.248,13.2699 93,40.5C 95.1102,59.4379 88.6102,74.6045 73.5,86C 48.5544,99.0104 27.0544,94.8437 9,73.5C -4.01041,48.5544 0.156253,27.0544 21.5,9C 27.604,5.58334 33.9373,3.08334 40.5,1.5 Z"/></g>
<g><path style="opacity:1" fill="#f68e8e" d="M 37.5,3.5 C 64.5322,0.588654 82.3655,11.922 91,37.5C 94.4041,65.0723 82.9041,82.9056 56.5,91C 29.4532,93.9433 11.9532,82.4433 4,56.5C 1.16546,29.8593 12.3321,12.1926 37.5,3.5 Z"/></g>
<g><path style="opacity:1" fill="#fbc3c3" d="M 43.5,60.5 C 44.4731,62.9479 44.8064,65.6146 44.5,68.5C 46.5,68.5 48.5,68.5 50.5,68.5C 50.1936,65.6146 50.5269,62.9479 51.5,60.5C 51.5,63.5 51.5,66.5 51.5,69.5C 48.8333,69.5 46.1667,69.5 43.5,69.5C 43.5,66.5 43.5,63.5 43.5,60.5 Z"/></g>
<g><path style="opacity:1" fill="#fbd3d3" d="M 51.5,50.5 C 51.5,52.1667 51.5,53.8333 51.5,55.5C 54.7131,55.19 57.7131,55.5233 60.5,56.5C 57.1667,56.5 53.8333,56.5 50.5,56.5C 50.2053,54.2646 50.5386,52.2646 51.5,50.5 Z"/></g>
<g><path style="opacity:1" fill="#fbd0d0" d="M 43.5,50.5 C 44.4614,52.2646 44.7947,54.2646 44.5,56.5C 41.1667,56.5 37.8333,56.5 34.5,56.5C 34.5,57.8333 34.5,59.1667 34.5,60.5C 33.5489,59.0813 33.2155,57.4147 33.5,55.5C 36.8333,55.5 40.1667,55.5 43.5,55.5C 43.5,53.8333 43.5,52.1667 43.5,50.5 Z"/></g>
<g><path style="opacity:1" fill="#fefbfb" d="M 51.5,50.5 C 50.5386,52.2646 50.2053,54.2646 50.5,56.5C 53.8333,56.5 57.1667,56.5 60.5,56.5C 60.5,57.8333 60.5,59.1667 60.5,60.5C 57.5,60.5 54.5,60.5 51.5,60.5C 50.5269,62.9479 50.1936,65.6146 50.5,68.5C 48.5,68.5 46.5,68.5 44.5,68.5C 44.8064,65.6146 44.4731,62.9479 43.5,60.5C 40.5,60.5 37.5,60.5 34.5,60.5C 34.5,59.1667 34.5,57.8333 34.5,56.5C 37.8333,56.5 41.1667,56.5 44.5,56.5C 44.7947,54.2646 44.4614,52.2646 43.5,50.5C 40.1667,50.5 36.8333,50.5 33.5,50.5C 33.5,48.8333 33.5,47.1667 33.5,45.5C 36.5184,45.6646 39.5184,45.498 42.5,45C 38.4815,38.7953 35.1482,32.2953 32.5,25.5C 34.924,25.1924 37.2573,25.5258 39.5,26.5C 42.3489,32.1978 45.1822,37.8644 48,43.5C 50.5,37.8333 53,32.1667 55.5,26.5C 57.8333,25.1667 60.1667,25.1667 62.5,26.5C 59.5481,32.906 56.2147,39.0726 52.5,45C 55.146,45.4974 57.8127,45.6641 60.5,45.5C 60.5,47.1667 60.5,48.8333 60.5,50.5C 57.5,50.5 54.5,50.5 51.5,50.5 Z"/></g>
</svg>
